<mxfile host="65bd71144e">
    <diagram id="-AanQe75kt6UGUcAjNG-" name="Page-1">
        <mxGraphModel dx="1325" dy="609" grid="1" gridSize="10" guides="1" tooltips="1" connect="1" arrows="1" fold="1" page="1" pageScale="1" pageWidth="850" pageHeight="1100" math="0" shadow="0">
            <root>
                <mxCell id="0"/>
                <mxCell id="1" parent="0"/>
                <mxCell id="2" value="end" style="html=1;dashed=0;whitespace=wrap;shape=mxgraph.dfd.start" parent="1" vertex="1">
                    <mxGeometry x="380" y="860" width="80" height="30" as="geometry"/>
                </mxCell>
                <mxCell id="18" style="edgeStyle=none;html=1;entryX=0.5;entryY=0;entryDx=0;entryDy=0;entryPerimeter=0;" parent="1" source="3" target="4" edge="1">
                    <mxGeometry relative="1" as="geometry"/>
                </mxCell>
                <mxCell id="3" value="start" style="html=1;dashed=0;whitespace=wrap;shape=mxgraph.dfd.start" parent="1" vertex="1">
                    <mxGeometry x="385.5" y="180" width="80" height="30" as="geometry"/>
                </mxCell>
                <mxCell id="7" style="edgeStyle=none;html=1;entryX=0.5;entryY=0.5;entryDx=0;entryDy=-15;entryPerimeter=0;" parent="1" source="4" target="5" edge="1">
                    <mxGeometry relative="1" as="geometry"/>
                </mxCell>
                <mxCell id="8" value="True" style="edgeLabel;html=1;align=center;verticalAlign=middle;resizable=0;points=[];" parent="7" vertex="1" connectable="0">
                    <mxGeometry x="-0.2438" relative="1" as="geometry">
                        <mxPoint as="offset"/>
                    </mxGeometry>
                </mxCell>
                <mxCell id="10" style="edgeStyle=none;html=1;entryX=1;entryY=0.5;entryDx=0;entryDy=0;entryPerimeter=0;" parent="1" source="4" target="2" edge="1">
                    <mxGeometry relative="1" as="geometry">
                        <mxPoint x="760" y="660" as="targetPoint"/>
                        <Array as="points">
                            <mxPoint x="760" y="305"/>
                            <mxPoint x="760" y="870"/>
                        </Array>
                    </mxGeometry>
                </mxCell>
                <mxCell id="11" value="False" style="edgeLabel;html=1;align=center;verticalAlign=middle;resizable=0;points=[];" parent="10" vertex="1" connectable="0">
                    <mxGeometry x="-0.198" y="1" relative="1" as="geometry">
                        <mxPoint y="1" as="offset"/>
                    </mxGeometry>
                </mxCell>
                <mxCell id="4" value="&lt;div style=&quot;color: rgb(171, 178, 191); background-color: rgb(40, 44, 52); font-family: MontserratAlternates-Regular, Consolas, &amp;quot;Courier New&amp;quot;, monospace; font-size: 18px; line-height: 24px;&quot;&gt;&amp;nbsp;i &lt;span style=&quot;color: #56b6c2;&quot;&gt;=&lt;/span&gt; &lt;span style=&quot;color: #d19a66;&quot;&gt;1&lt;/span&gt;; i &lt;span style=&quot;color: #56b6c2;&quot;&gt;&amp;lt;&lt;/span&gt; arr.&lt;span style=&quot;color: #e06c75;&quot;&gt;length&lt;/span&gt;; i&lt;span style=&quot;color: #56b6c2;&quot;&gt;++&lt;/span&gt;&lt;/div&gt;" style="html=1;dashed=0;whitespace=wrap;shape=mxgraph.dfd.loop" parent="1" vertex="1">
                    <mxGeometry x="284" y="290" width="283" height="30" as="geometry"/>
                </mxCell>
                <mxCell id="14" style="edgeStyle=none;html=1;entryX=0.5;entryY=0;entryDx=0;entryDy=0;" parent="1" source="5" target="12" edge="1">
                    <mxGeometry relative="1" as="geometry"/>
                </mxCell>
                <mxCell id="15" value="True" style="edgeLabel;html=1;align=center;verticalAlign=middle;resizable=0;points=[];" parent="14" vertex="1" connectable="0">
                    <mxGeometry x="-0.3768" y="2" relative="1" as="geometry">
                        <mxPoint y="8" as="offset"/>
                    </mxGeometry>
                </mxCell>
                <mxCell id="16" style="edgeStyle=none;html=1;entryX=0.5;entryY=0;entryDx=0;entryDy=0;" parent="1" source="5" target="13" edge="1">
                    <mxGeometry relative="1" as="geometry"/>
                </mxCell>
                <mxCell id="17" value="False" style="edgeLabel;html=1;align=center;verticalAlign=middle;resizable=0;points=[];" parent="16" vertex="1" connectable="0">
                    <mxGeometry x="-0.4014" y="3" relative="1" as="geometry">
                        <mxPoint x="-3" y="18" as="offset"/>
                    </mxGeometry>
                </mxCell>
                <mxCell id="5" value="&lt;div style=&quot;color: rgb(171, 178, 191); background-color: rgb(40, 44, 52); font-family: MontserratAlternates-Regular, Consolas, &amp;quot;Courier New&amp;quot;, monospace; font-size: 18px; line-height: 24px;&quot;&gt;j &lt;span style=&quot;color: #56b6c2;&quot;&gt;=&lt;/span&gt; i &lt;span style=&quot;color: #56b6c2;&quot;&gt;-&lt;/span&gt; &lt;span style=&quot;color: #d19a66;&quot;&gt;1&lt;/span&gt;; j &lt;span style=&quot;color: #56b6c2;&quot;&gt;&amp;gt;=&lt;/span&gt; &lt;span style=&quot;color: #d19a66;&quot;&gt;0&lt;/span&gt; &lt;span style=&quot;color: #56b6c2;&quot;&gt;&amp;amp;&amp;amp;&lt;/span&gt; arr[j] &lt;span style=&quot;color: #56b6c2;&quot;&gt;&amp;gt;&lt;/span&gt; curr; j&lt;span style=&quot;color: #56b6c2;&quot;&gt;--&lt;/span&gt;&lt;/div&gt;" style="html=1;dashed=0;whitespace=wrap;shape=mxgraph.dfd.start" parent="1" vertex="1">
                    <mxGeometry x="225" y="440" width="400" height="30" as="geometry"/>
                </mxCell>
                <mxCell id="12" value="&lt;div style=&quot;color: rgb(171, 178, 191); background-color: rgb(40, 44, 52); font-family: MontserratAlternates-Regular, Consolas, &amp;quot;Courier New&amp;quot;, monospace; font-size: 18px; line-height: 24px;&quot;&gt;arr[j &lt;span style=&quot;color: #56b6c2;&quot;&gt;+&lt;/span&gt; &lt;span style=&quot;color: #d19a66;&quot;&gt;1&lt;/span&gt;] &lt;span style=&quot;color: #56b6c2;&quot;&gt;=&lt;/span&gt; arr[j]&lt;/div&gt;" style="html=1;dashed=0;whitespace=wrap;" parent="1" vertex="1">
                    <mxGeometry x="150" y="570" width="200" height="40" as="geometry"/>
                </mxCell>
                <mxCell id="20" style="edgeStyle=none;html=1;entryX=0.007;entryY=0.333;entryDx=0;entryDy=0;entryPerimeter=0;" parent="1" source="13" target="4" edge="1">
                    <mxGeometry relative="1" as="geometry">
                        <mxPoint x="90" y="260" as="targetPoint"/>
                        <Array as="points">
                            <mxPoint x="90" y="735"/>
                            <mxPoint x="90" y="290"/>
                            <mxPoint x="90" y="280"/>
                        </Array>
                    </mxGeometry>
                </mxCell>
                <mxCell id="13" value="&lt;div style=&quot;color: rgb(171, 178, 191); background-color: rgb(40, 44, 52); font-family: MontserratAlternates-Regular, Consolas, &amp;quot;Courier New&amp;quot;, monospace; font-size: 18px; line-height: 24px;&quot;&gt;arr[j &lt;span style=&quot;color: #56b6c2;&quot;&gt;+&lt;/span&gt; &lt;span style=&quot;color: #d19a66;&quot;&gt;1&lt;/span&gt;] &lt;span style=&quot;color: #56b6c2;&quot;&gt;=&lt;/span&gt; curr;&lt;/div&gt;" style="html=1;dashed=0;whitespace=wrap;" parent="1" vertex="1">
                    <mxGeometry x="325.5" y="710" width="200" height="50" as="geometry"/>
                </mxCell>
                <mxCell id="19" value="curr = arr[i]" style="html=1;" parent="1" vertex="1">
                    <mxGeometry x="600" y="150" width="110" height="50" as="geometry"/>
                </mxCell>
            </root>
        </mxGraphModel>
    </diagram>
</mxfile>